<?xml version="1.0" encoding="UTF-8"?>
<svg id="Layer_2" data-name="Layer 2" xmlns="http://www.w3.org/2000/svg" viewBox="0 0 504.45 258.27">
  <defs>
    <style>
      .cls-1 {
        fill: #7a1f38;
      }

      .cls-1, .cls-2, .cls-3, .cls-4 {
        stroke-width: 0px;
      }

      .cls-2 {
        fill: #a53a4b;
      }

      .cls-3 {
        fill: #b58e44;
      }

      .cls-4 {
        fill: #8b5919;
      }
    </style>
  </defs>
  <g id="Layer_1-2" data-name="Layer 1">
    <g>
      <g>
        <path class="cls-4" d="m494.16,16.49c-2.97,0-5.39-2.46-5.39-5.5v-5.49c0-3.04,2.41-5.5,5.39-5.5s5.39,2.46,5.39,5.5v5.49c0,3.03-2.41,5.5-5.39,5.5Z"/>
        <path class="cls-4" d="m472.61,16.49c-2.97,0-5.38-2.46-5.38-5.5v-5.49c0-3.04,2.41-5.5,5.38-5.5s5.39,2.46,5.39,5.5v5.49c0,3.03-2.41,5.5-5.39,5.5Z"/>
        <path class="cls-4" d="m451.07,16.49c-2.97,0-5.39-2.46-5.39-5.5v-5.49c0-3.04,2.41-5.5,5.39-5.5s5.38,2.46,5.38,5.5v5.49c0,3.03-2.41,5.5-5.38,5.5Z"/>
        <path class="cls-4" d="m429.53,16.49c-2.97,0-5.39-2.46-5.39-5.5v-5.49c0-3.04,2.41-5.5,5.39-5.5s5.39,2.46,5.39,5.5v5.49c0,3.03-2.41,5.5-5.39,5.5Z"/>
        <path class="cls-4" d="m407.98,16.49c-2.97,0-5.38-2.46-5.38-5.5v-5.49c0-3.04,2.41-5.5,5.38-5.5s5.39,2.46,5.39,5.5v5.49c0,3.03-2.41,5.5-5.39,5.5Z"/>
      </g>
      <path class="cls-2" d="m0,258.27h58.71v-5.49c0-26.39-5.99-48.12-11.02-61.72-3.06-8.27-6.13-14.6-8.28-18.64,6.73-4.23,19.12-13.39,31.51-29.57,10.44-13.64,18.75-29.51,24.7-47.19,7.39-21.94,11.13-46.73,11.13-73.66v-5.5H0v241.78Z"/>
      <path class="cls-2" d="m397.7,16.49v5.5c0,26.85,3.75,51.59,11.13,73.52,5.95,17.66,14.26,33.54,24.7,47.21,12.39,16.23,24.79,25.44,31.52,29.69-2.16,4.04-5.23,10.37-8.3,18.66-5.04,13.6-11.02,35.34-11.02,61.72v5.49h58.71V16.49h-106.75Z"/>
      <g>
        <path class="cls-4" d="m96.46,16.49c-2.97,0-5.39-2.46-5.39-5.5v-5.49c0-3.04,2.41-5.5,5.39-5.5s5.39,2.46,5.39,5.5v5.49c0,3.03-2.41,5.5-5.39,5.5Z"/>
        <path class="cls-4" d="m74.91,16.49c-2.97,0-5.38-2.46-5.38-5.5v-5.49c0-3.04,2.41-5.5,5.38-5.5s5.39,2.46,5.39,5.5v5.49c0,3.03-2.41,5.5-5.39,5.5Z"/>
        <path class="cls-4" d="m53.37,16.49c-2.97,0-5.39-2.46-5.39-5.5v-5.49c0-3.04,2.41-5.5,5.39-5.5s5.38,2.46,5.38,5.5v5.49c0,3.03-2.41,5.5-5.38,5.5Z"/>
        <path class="cls-4" d="m31.83,16.49c-2.97,0-5.39-2.46-5.39-5.5v-5.49c0-3.04,2.41-5.5,5.39-5.5s5.39,2.46,5.39,5.5v5.49c0,3.03-2.41,5.5-5.39,5.5Z"/>
        <path class="cls-4" d="m10.28,16.49c-2.97,0-5.38-2.46-5.38-5.5v-5.49C4.9,2.46,7.31,0,10.28,0s5.39,2.46,5.39,5.5v5.49c0,3.03-2.41,5.5-5.39,5.5Z"/>
      </g>
      <path class="cls-3" d="m493.58,6.75H10.51C4.71,6.75,0,5.24,0,3.38S4.71,0,10.51,0h483.07C499.38,0,504.09,1.51,504.09,3.38s-4.71,3.37-10.51,3.37Z"/>
      <path class="cls-1" d="m21.34,175.84c-1.29,0-2.59-.48-3.61-1.45-2.17-2.06-2.31-5.54-.3-7.78,14.18-15.79,25.72-33.18,34.33-51.65,6.89-14.79,11.92-30.31,14.96-46.16,4.16-21.64,3.6-39.59,2.72-46.06-.41-3,1.62-5.78,4.53-6.21,2.92-.42,5.61,1.66,6.03,4.66.12.82,2.74,20.49-2.71,49.24-3.18,16.81-8.49,33.29-15.77,48.97-9.09,19.58-21.28,37.98-36.26,54.68-1.05,1.16-2.49,1.75-3.93,1.75Z"/>
      <path class="cls-1" d="m10.67,175.84c-1.1,0-2.22-.34-3.17-1.08-2.37-1.8-2.87-5.25-1.11-7.68,10.34-14.36,23.78-41.8,29.11-90.96,3.23-29.76,1.89-53.57,1.88-53.8-.18-3.03,2.06-5.64,5-5.82,2.94-.19,5.47,2.13,5.65,5.15.05,1,1.41,24.83-1.9,55.49-1.95,18.07-5.12,34.73-9.44,49.52-5.45,18.7-12.76,34.51-21.73,46.96-1.05,1.46-2.66,2.22-4.29,2.22Z"/>
      <path class="cls-1" d="m32.03,258.27h-.18c-2.95-.1-5.25-2.64-5.15-5.68,1.06-32.04-14.89-79.96-15.06-80.43-.96-2.88.52-6,3.3-7,2.79-.98,5.83.53,6.79,3.4.69,2.04,16.77,50.36,15.64,84.42-.09,2.96-2.46,5.3-5.33,5.3Z"/>
      <path class="cls-1" d="m483.1,175.84c-1.44,0-2.88-.6-3.93-1.75-14.97-16.7-27.17-35.1-36.25-54.68-7.28-15.68-12.59-32.16-15.77-48.97-5.45-28.75-2.83-48.42-2.71-49.24.41-3,3.12-5.1,6.04-4.66,2.92.43,4.94,3.2,4.53,6.21h0c-.88,6.47-1.44,24.42,2.72,46.06,3.04,15.84,8.08,31.37,14.96,46.16,8.61,18.47,20.16,35.86,34.33,51.65,2,2.24,1.86,5.72-.3,7.78-1.02.97-2.32,1.45-3.61,1.45Z"/>
      <path class="cls-1" d="m493.78,175.84c-1.63,0-3.24-.76-4.29-2.22-8.97-12.44-16.28-28.25-21.73-46.96-4.32-14.8-7.49-31.45-9.44-49.52-3.31-30.66-1.95-54.5-1.9-55.49.18-3.03,2.71-5.34,5.65-5.15,2.94.18,5.18,2.79,5,5.82-.02.31-1.35,24.08,1.88,53.8,2.94,27.14,10.38,64.95,29.11,90.96,1.76,2.43,1.26,5.88-1.11,7.68-.95.74-2.07,1.08-3.17,1.08Z"/>
      <path class="cls-1" d="m472.42,258.27c-2.87,0-5.24-2.33-5.33-5.3-1.13-34.07,14.95-82.38,15.64-84.42.96-2.87,4-4.38,6.79-3.4,2.78,1,4.26,4.12,3.3,7-.16.47-16.12,48.43-15.06,80.43.1,3.04-2.2,5.59-5.15,5.68h-.18Z"/>
      <path class="cls-3" d="m42.7,175.84H0v-10.98h42.7c2.95,0,5.34,2.45,5.34,5.49s-2.39,5.49-5.34,5.49Z"/>
      <path class="cls-3" d="m461.39,175.84h42.7v-10.98h-42.7c-2.95,0-5.34,2.45-5.34,5.49s2.39,5.49,5.34,5.49Z"/>
    </g>
  </g>
</svg>