<?xml version="1.0" encoding="UTF-8"?>
<svg id="Layer_2" data-name="Layer 2" xmlns="http://www.w3.org/2000/svg" viewBox="0 0 377.19 307.85">
  <defs>
    <style>
      .cls-1 {
        fill: #aba9c8;
      }

      .cls-1, .cls-2, .cls-3, .cls-4 {
        stroke-width: 0px;
      }

      .cls-2 {
        fill: #dd78a6;
      }

      .cls-3 {
        fill: #db5495;
      }

      .cls-4 {
        fill: #c0c5e1;
      }
    </style>
  </defs>
  <g id="Layer_1-2" data-name="Layer 1">
    <g>
      <g>
        <path class="cls-4" d="m244.33,167.34v42.83c0,7.36-5.96,13.32-13.32,13.32h-102.87c-7.36,0-13.32-5.96-13.32-13.32v-42.83h129.51Z"/>
        <path class="cls-4" d="m239.28,112.8l-2.28.53h0l-19.75,4.6-17.56,4.09-19.75,4.61-18.19,4.24h0l-19.75,4.61-17.56,4.09-9.45,2.2-3.09-13.27c-.12-.5-.21-1-.27-1.5-.81-5.84,1.63-11.52,6.06-15.01,1.82-1.43,3.97-2.5,6.38-3.06l14.08-3.28,17.56-4.09h0l19.75-4.61,18.19-4.24,19.75-4.6,5.88-1.37c3.55-.83,7.1-.43,10.2.93,4.56,1.99,8.15,6.03,9.37,11.24l1.46,6.25h0s1.02,4.36,1.02,4.36c.34,1.47-.57,2.94-2.04,3.28Z"/>
        <path class="cls-4" d="m244.33,140.49v26.85H114.82v-29.92h126.44c1.56,0,2.85,1.16,3.05,2.67.02.13.03.27.03.4Z"/>
        <polygon class="cls-1" points="225.15 137.41 195.23 167.34 171.77 167.34 201.69 137.41 225.15 137.41"/>
        <path class="cls-1" d="m244.33,140.49v23.03l-3.82,3.82h-23.46l27.25-27.25c.02.13.03.27.03.4Z"/>
        <polygon class="cls-1" points="136.74 137.41 114.82 159.34 114.82 137.41 136.74 137.41"/>
        <polygon class="cls-1" points="181.06 137.41 151.14 167.34 127.68 167.34 157.6 137.41 181.06 137.41"/>
        <polygon class="cls-1" points="213.39 88.11 199.69 122.03 179.94 126.63 193.64 92.71 213.39 88.11"/>
        <path class="cls-1" d="m240.3,105.16h0s-3.3,8.17-3.3,8.17h0l-19.75,4.6,12.23-30.27c4.56,1.99,8.15,6.03,9.37,11.24l1.46,6.25Z"/>
        <path class="cls-1" d="m138.14,105.66l-13.7,33.92-9.45,2.2-3.09-13.27c-.12-.5-.21-1-.27-1.5l6.06-15.01c1.82-1.43,3.97-2.5,6.38-3.06l14.08-3.28Z"/>
        <polygon class="cls-1" points="175.46 96.96 161.75 130.87 161.75 130.87 142 135.48 155.7 101.56 155.7 101.56 175.46 96.96"/>
        <circle class="cls-1" cx="118.81" cy="140.08" r="12.72"/>
        <circle class="cls-4" cx="118.81" cy="140.08" r="4.61"/>
      </g>
      <path class="cls-3" d="m107.85,65.64c-5.62,2.01-10.83,2.5-15.63,1.48-4.8-1.02-8.93-3.45-12.39-7.29-2.78-3.35-4.7-7.34-5.76-11.96-1.06-4.63-1.48-9.07-1.25-13.34.05-2.15.37-4.26.95-6.33.58-2.07,1.54-3.93,2.89-5.59,3.34-3.55,7.41-4.84,12.23-3.88,2.65.75,4.74,2.16,6.25,4.23,1.51,2.07,2.45,4.43,2.81,7.09.22,1.6.34,3.22.37,4.86.04,1.91.22,3.84.54,5.77.18,1.6.77,3,1.76,4.2.5.58,1.32.98,2.46,1.19,1.14.21,2.09.18,2.84-.09.6-.27,1.08-.7,1.44-1.3s.58-1.22.66-1.88c.11-1.35-.02-2.68-.37-4-.68-2.87-1.18-5.83-1.48-8.87-.31-3.05.08-5.81,1.17-8.29,1.09-2.48,3.39-4.33,6.92-5.56,3.69-1.08,6.8-.84,9.33.7,2.53,1.54,4.57,3.79,6.12,6.74,1.55,2.95,2.67,6.01,3.37,9.18.71,3.29,1.66,9.25,2.86,17.9,1.2,8.64.64,16.75-1.67,24.33-1.22,3.79-3.04,7.26-5.46,10.41-2.43,3.14-5.36,5.69-8.8,7.63-3.93,2.13-7.92,3.41-11.97,3.86-4.05.45-8.26.37-12.63-.23-4.43-.41-8.63-1.58-12.58-3.51-1.98-1.06-3.7-2.45-5.15-4.16-1.45-1.71-2.4-3.66-2.84-5.85-.14-2.21.21-4.39,1.05-6.53.84-2.14,2.42-3.67,4.74-4.58,2-.51,4.1-.53,6.32-.06.73.07,1.43.14,2.08.21,1.66.16,3.3.31,4.91.43,1.66.16,3.31.31,4.97.43,1.7.24,3.39.23,5.06-.03,1.78-.3,3.2-1.16,4.26-2.57.45-.76.66-1.57.62-2.45-.04-.88-.36-1.64-.98-2.29Z"/>
      <path class="cls-3" d="m193.91,50.83c1.96,3.57,3.24,7.37,3.83,11.38.59,4.01.34,8.02-.75,12.03-1.4,4.76-3.9,8.79-7.49,12.1-3.59,3.31-7.83,5.56-12.71,6.75-5.01,1.08-9.99.89-14.94-.57-4.95-1.46-9.38-3.88-13.28-7.26-3.9-3.38-6.75-7.4-8.54-12.07-1.96-5.51-2.28-11.11-.94-16.81,1.34-5.69,4.08-10.62,8.22-14.79,4.93-4.66,10.42-7.18,16.47-7.56s11.8.93,17.25,3.95c5.45,3.02,9.74,7.3,12.88,12.85Zm-18.76,13.83c.26-2.31-.37-4.36-1.91-6.15-1.54-1.8-3.67-2.49-6.41-2.08-2.4.59-3.98,1.77-4.73,3.52-.75,1.75-.84,3.57-.25,5.45.59,1.89,1.71,3.31,3.35,4.28,1.65.97,3.67.95,6.07-.06,2.33-1.2,3.62-2.86,3.87-4.96Z"/>
      <path class="cls-3" d="m194.81.65c2.06-.76,4.21-.85,6.46-.28,2.25.57,4.08,1.56,5.5,2.97,2.03,2.23,2.98,4.67,2.86,7.33-.12,2.66-.57,5.34-1.34,8.04-.65,2.33-1.06,4.52-1.22,6.57-.1.93.03,1.84.4,2.73.45.96,1.27,1.6,2.45,1.94.72.15,1.43.11,2.13-.12.69-.23,1.26-.57,1.71-1.03.81-.92,1.29-1.98,1.44-3.15.4-2.91.5-5.83.29-8.77-.1-1.78-.12-3.55-.07-5.31.05-1.76.3-3.51.76-5.24.46-1.38,1.43-2.46,2.9-3.26s3.11-1.25,4.91-1.38c2.63-.2,4.61.18,5.93,1.14,1.32.96,2.3,2.38,2.95,4.27,1.55,4.16,2.3,8.27,2.23,12.31-.07,4.05-.69,8.11-1.86,12.2-.55,2.18-1.27,4.31-2.15,6.38-.88,2.07-2.17,3.93-3.87,5.56-1.7,1.63-4.02,2.87-6.97,3.71-5,1.22-10.2,1.12-15.6-.32s-9.62-3.93-12.66-7.49c-2.11-2.7-3.6-5.74-4.46-9.11-.87-3.37-1.25-6.78-1.14-10.23.11-3.45.56-6.62,1.34-9.53.39-1.63,1.06-3.34,1.99-5.11s2.27-3.22,4-4.32c.34-.2.71-.37,1.1-.52Z"/>
      <path class="cls-3" d="m287.73,96.21c-.16,3.58-1.4,6.42-3.74,8.52s-5.12,3.29-8.35,3.56c-3.23.27-6.25-.57-9.07-2.52-2.69-2.11-4.33-4.64-4.93-7.61-.6-2.97-.83-6.08-.69-9.33.13-3.38-.13-6.6-.8-9.67-.29-1.36-.87-2.55-1.76-3.57-.44-.51-1-.86-1.68-1.04-.67-.18-1.33-.11-1.96.21-.67.43-1.73,2.82-3.17,7.15-1.44,4.33-3.12,7.68-5.03,10.02-2.68,2.95-5.96,4.56-9.84,4.84-4.09.04-7.26-1.61-9.5-4.95-.9-1.84-1.48-3.81-1.73-5.89-.39-2.53-.36-5.06.1-7.58.46-2.52,1.05-5,1.77-7.45.35-1.19.67-2.35.96-3.48.43-1.69.85-3.39,1.24-5.09,1.25-5.29,2.66-10.52,4.22-15.67,2.51-8.02,6.46-14.11,11.86-18.26,5.4-4.16,12.35-5.86,20.87-5.1,7.09.49,13.66,2.51,19.71,6.04,2.97,1.87,5.54,4.18,7.72,6.93,2.17,2.75,3.68,5.83,4.51,9.24.71,3.53.38,7.18-.99,10.92-1.37,3.75-3.4,6.79-6.08,9.13-1.02.89-2.09,1.7-3.18,2.44-1.2.79-2.33,1.64-3.4,2.55-1.09.95-1.98,2.03-2.68,3.24-.7,1.22-1.04,2.52-1.01,3.92.07,1.16.36,2.25.89,3.26.52,1.01,1.13,1.97,1.8,2.88.53.74,1.03,1.52,1.5,2.33,1.62,3.14,2.43,6.48,2.45,10.03Zm-21.26-39.13c1.29-.47,2.26-1.21,2.9-2.23s.85-2.12.64-3.34c-.14-.7-.48-1.46-1.02-2.29-.54-.83-1.21-1.53-2-2.09s-1.65-.75-2.56-.57c-1.11.41-1.91,1.37-2.38,2.88-.48,1.51-.77,2.82-.89,3.92,0,.12-.02.24-.05.35-.18.67-.12,1.35.19,2.02.43.79,1.17,1.29,2.23,1.5,1.05.2,2.04.15,2.96-.16Z"/>
      <path class="cls-3" d="m39.56,275.01c-3.8-1.11-5.95-3.91-6.48-8.41,0-.26-.02-.53-.06-.8.03-1.53-.17-3.1-.61-4.72-.44-1.62-1.49-2.43-3.15-2.42-1.11.13-1.98.75-2.59,1.83-.61,1.09-1.09,2.24-1.44,3.45-.93,2.61-2.28,4.95-4.06,7.02-1.78,2.07-3.89,3.57-6.34,4.5-2.56.83-5.1.83-7.62,0-2.52-.83-4.48-2.42-5.85-4.77-1.61-3.49-1.79-7.14-.56-10.98,2.21-6.7,4.85-13.25,7.94-19.64,1.64-3.55,3.2-7.12,4.68-10.7,1.05-2.59,2.08-5.21,3.09-7.86,2.81-7.7,6.12-15.18,9.95-22.42,1.33-2.33,3.19-4.27,5.57-5.8,2.38-1.54,4.86-2.37,7.43-2.5,2.55,0,4.39.65,5.53,1.97,1.13,1.31,2.06,2.9,2.79,4.76.7,1.77,1.65,3.45,2.87,5.03,1.93,2.18,3.74,2.76,5.44,1.76,1.69-1.01,3.32-2.53,4.89-4.56.94-1.12,1.87-2.13,2.77-3.02.91-.89,1.85-1.5,2.83-1.83,3.16-.78,5.69-.16,7.61,1.86,1.91,2.02,3.37,4.61,4.36,7.76.99,3.15,1.7,5.98,2.12,8.5,3.34,18.27,5.21,36.74,5.61,55.39.06,1.98-.01,3.95-.21,5.91-.2,1.96-.78,3.78-1.72,5.48-1.67,2.72-4.05,4.45-7.12,5.2-3.07.75-6.02.47-8.86-.84-4.1-2.29-7.01-5.72-8.74-10.27-.22-.65-.46-1.51-.69-2.6-.44-1.9-1.03-3.75-1.79-5.53-.76-1.78-1.85-2.65-3.27-2.6-1.12.18-2.06.79-2.83,1.83-.77,1.04-1.48,2.26-2.14,3.64-.64,1.26-1.33,2.43-2.06,3.52-.74,1.09-1.62,1.86-2.66,2.31-1.64.67-3.19.84-4.64.53Z"/>
      <path class="cls-3" d="m141.28,211.19c1.96,3.57,3.24,7.37,3.83,11.38.59,4.01.34,8.02-.75,12.03-1.4,4.76-3.9,8.79-7.49,12.1-3.59,3.31-7.83,5.56-12.71,6.75-5.01,1.08-9.99.89-14.94-.57-4.95-1.46-9.38-3.88-13.28-7.26-3.9-3.38-6.75-7.4-8.54-12.07-1.96-5.51-2.28-11.11-.94-16.81,1.34-5.69,4.08-10.62,8.22-14.79,4.93-4.66,10.42-7.18,16.47-7.56s11.8.93,17.25,3.95c5.45,3.02,9.74,7.3,12.88,12.85Zm-18.76,13.83c.26-2.31-.37-4.36-1.91-6.15-1.54-1.8-3.67-2.49-6.41-2.08-2.4.59-3.98,1.77-4.73,3.52-.75,1.75-.84,3.57-.25,5.45.59,1.89,1.71,3.31,3.35,4.28,1.65.97,3.67.95,6.07-.06,2.33-1.2,3.62-2.86,3.87-4.96Z"/>
      <path class="cls-3" d="m159.14,301.36c-2.81-.69-4.48-2.55-5-5.6,0-.18-.03-.36-.07-.54-.02-1.04-.22-2.1-.59-3.19-.37-1.09-1.16-1.62-2.38-1.59-.81.11-1.42.54-1.84,1.29-.41.75-.73,1.54-.95,2.37-.6,1.79-1.51,3.4-2.74,4.83-1.23,1.43-2.73,2.48-4.49,3.16-1.84.61-3.7.65-5.57.13-1.87-.52-3.35-1.57-4.43-3.14-1.29-2.34-1.54-4.81-.75-7.44,1.4-4.58,3.13-9.07,5.19-13.45,1.09-2.44,2.12-4.88,3.09-7.33.68-1.78,1.36-3.57,2.01-5.38,1.81-5.27,4-10.4,6.57-15.37.9-1.6,2.19-2.95,3.89-4.03,1.69-1.08,3.48-1.69,5.35-1.82,1.86-.04,3.23.37,4.1,1.24.87.87,1.6,1.93,2.19,3.18.57,1.19,1.32,2.31,2.25,3.37,1.48,1.45,2.82,1.81,4.03,1.1,1.21-.71,2.35-1.77,3.43-3.18.65-.78,1.3-1.48,1.93-2.09.63-.62,1.3-1.05,2.01-1.29,2.28-.58,4.16-.21,5.62,1.13,1.46,1.34,2.61,3.07,3.43,5.19.82,2.12,1.43,4.03,1.82,5.73,3.01,12.34,4.96,24.83,5.84,37.47.11,1.34.12,2.68.03,4.01-.09,1.33-.45,2.58-1.09,3.74-1.14,1.87-2.82,3.09-5.04,3.65-2.22.56-4.39.42-6.5-.42-3.07-1.49-5.3-3.76-6.71-6.82-.18-.44-.38-1.02-.59-1.75-.38-1.28-.87-2.52-1.48-3.72-.61-1.19-1.43-1.76-2.47-1.71-.81.14-1.48.57-2.01,1.29-.53.72-1.01,1.55-1.45,2.5-.43.86-.89,1.67-1.4,2.42-.5.75-1.13,1.29-1.87,1.61-1.18.48-2.3.63-3.37.44Z"/>
      <path class="cls-2" d="m239.17,224.44c.12.43.22.85.3,1.26.43,1.62.63,3.26.6,4.94s-.62,3.08-1.78,4.21c-.92.76-1.99,1.21-3.19,1.35-1.21.14-2.41.08-3.6-.17-.24-.07-.48-.13-.72-.17-1.32-.39-2.61-.45-3.89-.19-.78.25-1.35.75-1.71,1.47-.37.73-.31,1.4.17,2.01.41.41.91.61,1.51.59.6-.02,1.23-.12,1.9-.27.61-.16,1.2-.27,1.78-.33,1.68.07,3.01.78,4.01,2.12.85,1.3,1.41,2.73,1.68,4.3.28,1.22.36,2.44.23,3.66-.13,1.23-.65,2.24-1.57,3.03-1.18.81-2.54,1.19-4.07,1.14-.26.02-.53.02-.79,0-.94,0-1.91.07-2.92.21-1,.14-1.81.5-2.42,1.1-.38.44-.6.95-.65,1.54-.05.59.09,1.14.41,1.65.39.62.95,1.06,1.69,1.3.73.25,1.48.35,2.24.3.82-.08,1.63-.22,2.44-.42.67-.16,1.33-.29,2-.39,1.98-.21,3.86.13,5.64,1.03s3.14,2.2,4.1,3.9c1.2,2.33,1.43,4.72.68,7.16-.75,2.44-2.34,4.25-4.76,5.43-5.86,2.46-11.92,2.92-18.16,1.4-6.25-1.53-11.3-4.72-15.16-9.58-4.08-5.55-6.3-11.81-6.65-18.78-.35-6.96,1.41-13.34,5.3-19.14,2.77-3.9,6.3-7.04,10.59-9.41,4.28-2.37,8.89-3.55,13.82-3.54,2.67,0,4.98.59,6.94,1.74,1.95,1.15,3.29,3.01,4.01,5.58Z"/>
      <path class="cls-2" d="m248.77,239.68c1.07-2.95,2.75-5.3,5.03-7.08,2.28-1.77,4.96-2.42,8.04-1.94,2.62.63,4.96,2.06,7.01,4.31,2.05,2.25,3.92,4.67,5.61,7.26,1.03,1.49,2.05,2.85,3.03,4.08.29.42.64.8,1.04,1.12s.84.49,1.31.49c.84-.11,1.39-.64,1.64-1.58.25-.94.28-1.87.11-2.8l-.41-2.22c-.49-2.17-.75-4.36-.77-6.56.02-1.5.32-2.94.89-4.33.57-1.39,1.45-2.47,2.64-3.25,1.44-.88,3-1.17,4.68-.85,1.68.32,3.23.99,4.64,2.02,2.38,1.87,3.98,4.39,4.79,7.53.82,3.15,1.37,6.34,1.67,9.58.13,1.17.28,2.29.43,3.36.81,5.82,1.21,11.68,1.21,17.58,0,.44.01.89.04,1.36.01,2.49-.11,5.08-.37,7.75-.26,2.67-.95,5.04-2.08,7.11-1.03,1.77-2.38,3.01-4.06,3.71-1.67.71-3.49.89-5.45.54-2.91-.58-5.62-1.74-8.13-3.49-2.5-1.75-4.83-3.8-6.97-6.16-2.15-2.36-4.17-4.71-6.08-7.05-.55-.73-1.1-1.43-1.67-2.1.5,2.26.87,4.55,1.12,6.86.25,2.32.08,4.57-.52,6.75-.68,2.27-1.9,4.16-3.67,5.65-1.77,1.49-3.74,2.03-5.91,1.61-1.46-.35-2.73-1.08-3.79-2.2-1.07-1.12-1.96-2.41-2.67-3.86-1.39-2.93-2.29-6.06-2.69-9.36-.4-3.31-.64-6.65-.7-10.02-.07-2.43-.2-4.82-.41-7.15-.59-4.66-.41-9.26.53-13.82.23-.95.52-1.91.87-2.87Z"/>
      <path class="cls-2" d="m294.96,194.18c3.56-.75,8.29-1.67,14.19-2.77,6.26-1.18,10.95-2.11,14.08-2.8s5.75-.41,7.87.82c2.12,1.24,3.55,3.54,4.29,6.89.4,1.81.44,3.73.13,5.77s-1.2,3.77-2.68,5.2c-1.16.84-2.69,1.4-4.6,1.69-1.19.23-2.29.54-3.29.93-1,.39-1.7,1.01-2.1,1.86-.52,1.56-.6,3.15-.24,4.76.78,4.48,1.88,8.9,3.29,13.25.88,2.91,1.67,5.83,2.38,8.76.7,2.93,1.13,5.93,1.29,9,.03,4.65-1.6,7.9-4.89,9.75-3.28,1.85-7.17,1.9-11.66.17-2.45-1.08-4.42-2.73-5.91-4.96-1.49-2.22-2.5-4.59-3.02-7.1-.65-3.1-1.09-6.12-1.33-9.07-.24-2.67-.64-5.46-1.18-8.38-.26-1.49-.65-3.1-1.17-4.81-.52-1.71-1.27-3.2-2.26-4.47-.99-1.26-2.32-1.97-4.01-2.12-1.49-.02-2.9.12-4.25.42-1.26.24-2.49.35-3.71.33-1.21-.02-2.4-.46-3.55-1.31-1.53-1.15-2.74-2.65-3.64-4.53s-1.24-3.76-1.04-5.67c.49-2.94,2.01-5.3,4.57-7.09,2.55-1.79,5.28-2.99,8.18-3.59l4.24-.94Z"/>
      <path class="cls-2" d="m365.68,241.97c2.41,1.81,4.55,3.88,6.43,6.2,1.88,2.32,3.27,4.87,4.19,7.66.92,2.88,1.13,5.79.64,8.74-.49,2.95-1.75,5.55-3.78,7.79-2.13,2.1-4.66,3.59-7.6,4.47-2.94.88-5.95,1.37-9.02,1.48-2.92.19-5.7-.06-8.32-.73s-5-2.07-7.14-4.19c-1.16-1.22-2.01-2.61-2.53-4.18-.53-1.57-.58-3.16-.15-4.77.48-1.62,1.45-2.9,2.9-3.84,1.45-.94,3.01-1.25,4.68-.91.9.27,1.76.64,2.58,1.11.7.43,1.44.77,2.22,1.05.9.27,1.79.25,2.68-.04.89-.29,1.44-.85,1.65-1.69.08-.65-.08-1.26-.47-1.82-.39-.56-.85-1.06-1.37-1.5-.69-.63-1.39-1.26-2.1-1.89-2.11-1.8-4.13-3.71-6.07-5.71-1.93-2.01-3.49-4.2-4.67-6.59s-1.7-5.07-1.57-8.05c.11-3.29,1.04-6.36,2.78-9.2,1.74-2.84,4.11-5.03,7.09-6.57,4.24-2.06,8.54-2.63,12.9-1.72,4.36.91,8.04,3.08,11.05,6.5,1.17,1.33,1.97,2.85,2.38,4.56.42,1.71.31,3.37-.32,5-.75,1.63-1.96,2.82-3.63,3.56-1.67.74-3.32.75-4.95.03-.46-.26-.98-.66-1.57-1.18-.81-.8-1.66-1.38-2.53-1.73-.87-.36-1.67.08-2.38,1.3-.46,1.14-.12,2.23,1,3.26s2.32,1.93,3.61,2.7c.58.34,1.04.65,1.38.93Z"/>
    </g>
  </g>
</svg>